<mxfile host="app.diagrams.net" modified="2023-04-12T14:12:47.014Z" agent="Mozilla/5.0 (Windows NT 10.0; Win64; x64; rv:109.0) Gecko/20100101 Firefox/111.0" etag="TkoNiL41-Eu5Wi7qyaGL" version="21.1.6" type="device">
  <diagram name="Page-1" id="b5jGd8236f6lH5AmqY4U">
    <mxGraphModel dx="710" dy="398" grid="1" gridSize="10" guides="1" tooltips="1" connect="1" arrows="1" fold="1" page="1" pageScale="1" pageWidth="850" pageHeight="1100" math="0" shadow="0">
      <root>
        <mxCell id="0" />
        <mxCell id="1" parent="0" />
        <mxCell id="5OugIS2SkRYx22zBb0D2-1" style="edgeStyle=orthogonalEdgeStyle;rounded=0;orthogonalLoop=1;jettySize=auto;html=1;exitX=1;exitY=0.5;exitDx=0;exitDy=0;" edge="1" parent="1" source="5OugIS2SkRYx22zBb0D2-3" target="5OugIS2SkRYx22zBb0D2-6">
          <mxGeometry relative="1" as="geometry" />
        </mxCell>
        <mxCell id="5OugIS2SkRYx22zBb0D2-3" value="Idle" style="ellipse;whiteSpace=wrap;html=1;aspect=fixed;" vertex="1" parent="1">
          <mxGeometry x="120" y="60" width="80" height="80" as="geometry" />
        </mxCell>
        <mxCell id="5OugIS2SkRYx22zBb0D2-4" style="edgeStyle=orthogonalEdgeStyle;rounded=0;orthogonalLoop=1;jettySize=auto;html=1;exitX=0.5;exitY=1;exitDx=0;exitDy=0;entryX=0.5;entryY=0;entryDx=0;entryDy=0;" edge="1" parent="1" source="5OugIS2SkRYx22zBb0D2-6" target="5OugIS2SkRYx22zBb0D2-31">
          <mxGeometry relative="1" as="geometry">
            <mxPoint x="360" y="200" as="targetPoint" />
            <Array as="points" />
          </mxGeometry>
        </mxCell>
        <mxCell id="5OugIS2SkRYx22zBb0D2-6" value="Waiting" style="ellipse;whiteSpace=wrap;html=1;aspect=fixed;" vertex="1" parent="1">
          <mxGeometry x="320" y="60" width="80" height="80" as="geometry" />
        </mxCell>
        <mxCell id="5OugIS2SkRYx22zBb0D2-34" style="edgeStyle=orthogonalEdgeStyle;rounded=1;orthogonalLoop=1;jettySize=auto;html=1;exitX=0.5;exitY=0;exitDx=0;exitDy=0;entryX=1;entryY=0.5;entryDx=0;entryDy=0;" edge="1" parent="1" source="5OugIS2SkRYx22zBb0D2-8" target="5OugIS2SkRYx22zBb0D2-6">
          <mxGeometry relative="1" as="geometry" />
        </mxCell>
        <mxCell id="5OugIS2SkRYx22zBb0D2-8" value="&lt;div&gt;Sent&lt;/div&gt;" style="ellipse;whiteSpace=wrap;html=1;aspect=fixed;" vertex="1" parent="1">
          <mxGeometry x="480" y="200" width="80" height="80" as="geometry" />
        </mxCell>
        <mxCell id="5OugIS2SkRYx22zBb0D2-38" style="edgeStyle=orthogonalEdgeStyle;rounded=0;orthogonalLoop=1;jettySize=auto;html=1;exitX=0.5;exitY=0;exitDx=0;exitDy=0;entryX=0.5;entryY=1;entryDx=0;entryDy=0;" edge="1" parent="1" source="5OugIS2SkRYx22zBb0D2-11" target="5OugIS2SkRYx22zBb0D2-3">
          <mxGeometry relative="1" as="geometry" />
        </mxCell>
        <mxCell id="5OugIS2SkRYx22zBb0D2-11" value="Wait For End" style="ellipse;whiteSpace=wrap;html=1;aspect=fixed;" vertex="1" parent="1">
          <mxGeometry x="120" y="200" width="80" height="80" as="geometry" />
        </mxCell>
        <mxCell id="5OugIS2SkRYx22zBb0D2-42" value="" style="edgeStyle=orthogonalEdgeStyle;rounded=0;orthogonalLoop=1;jettySize=auto;html=1;" edge="1" parent="1" source="5OugIS2SkRYx22zBb0D2-13" target="5OugIS2SkRYx22zBb0D2-3">
          <mxGeometry relative="1" as="geometry" />
        </mxCell>
        <mxCell id="5OugIS2SkRYx22zBb0D2-13" value="Reset" style="rounded=0;whiteSpace=wrap;html=1;" vertex="1" parent="1">
          <mxGeometry x="30" y="90" width="60" height="20" as="geometry" />
        </mxCell>
        <mxCell id="5OugIS2SkRYx22zBb0D2-19" value="&lt;div&gt;DataReady = 1&lt;/div&gt;&lt;div&gt;TxReady = 0&lt;br&gt;&lt;/div&gt;" style="text;html=1;strokeColor=none;fillColor=none;align=center;verticalAlign=middle;whiteSpace=wrap;rounded=0;" vertex="1" parent="1">
          <mxGeometry x="210" y="70" width="100" height="30" as="geometry" />
        </mxCell>
        <mxCell id="5OugIS2SkRYx22zBb0D2-25" value="" style="endArrow=classic;html=1;rounded=0;entryX=0;entryY=0;entryDx=0;entryDy=0;exitX=1;exitY=1;exitDx=0;exitDy=0;" edge="1" parent="1" source="5OugIS2SkRYx22zBb0D2-3" target="5OugIS2SkRYx22zBb0D2-31">
          <mxGeometry width="50" height="50" relative="1" as="geometry">
            <mxPoint x="190" y="130" as="sourcePoint" />
            <mxPoint x="320" y="220" as="targetPoint" />
          </mxGeometry>
        </mxCell>
        <mxCell id="5OugIS2SkRYx22zBb0D2-26" value="&lt;div&gt;DataReady = 1&lt;/div&gt;&lt;div&gt;TxReady = 1&lt;/div&gt;" style="text;html=1;strokeColor=none;fillColor=none;align=center;verticalAlign=middle;whiteSpace=wrap;rounded=0;" vertex="1" parent="1">
          <mxGeometry x="250" y="160" width="110" height="30" as="geometry" />
        </mxCell>
        <mxCell id="5OugIS2SkRYx22zBb0D2-27" value="&lt;div&gt;TxReady = 1&lt;/div&gt;" style="text;html=1;strokeColor=none;fillColor=none;align=center;verticalAlign=middle;whiteSpace=wrap;rounded=0;" vertex="1" parent="1">
          <mxGeometry x="360" y="160" width="80" height="30" as="geometry" />
        </mxCell>
        <mxCell id="5OugIS2SkRYx22zBb0D2-33" style="edgeStyle=orthogonalEdgeStyle;rounded=0;orthogonalLoop=1;jettySize=auto;html=1;exitX=1;exitY=0.5;exitDx=0;exitDy=0;entryX=0;entryY=0.5;entryDx=0;entryDy=0;" edge="1" parent="1" source="5OugIS2SkRYx22zBb0D2-31" target="5OugIS2SkRYx22zBb0D2-8">
          <mxGeometry relative="1" as="geometry" />
        </mxCell>
        <mxCell id="5OugIS2SkRYx22zBb0D2-40" style="edgeStyle=orthogonalEdgeStyle;rounded=0;orthogonalLoop=1;jettySize=auto;html=1;exitX=0;exitY=0.5;exitDx=0;exitDy=0;entryX=1;entryY=0.5;entryDx=0;entryDy=0;" edge="1" parent="1" source="5OugIS2SkRYx22zBb0D2-31" target="5OugIS2SkRYx22zBb0D2-11">
          <mxGeometry relative="1" as="geometry" />
        </mxCell>
        <mxCell id="5OugIS2SkRYx22zBb0D2-31" value="SEND" style="rounded=1;whiteSpace=wrap;html=1;glass=0;" vertex="1" parent="1">
          <mxGeometry x="320" y="220" width="80" height="40" as="geometry" />
        </mxCell>
        <mxCell id="5OugIS2SkRYx22zBb0D2-35" value="NoData = 0" style="text;html=1;strokeColor=none;fillColor=none;align=center;verticalAlign=middle;whiteSpace=wrap;rounded=0;" vertex="1" parent="1">
          <mxGeometry x="400" y="240" width="80" height="20" as="geometry" />
        </mxCell>
        <mxCell id="5OugIS2SkRYx22zBb0D2-37" value="NoData = 1" style="text;html=1;strokeColor=none;fillColor=none;align=center;verticalAlign=middle;whiteSpace=wrap;rounded=0;" vertex="1" parent="1">
          <mxGeometry x="220" y="240" width="80" height="20" as="geometry" />
        </mxCell>
        <mxCell id="5OugIS2SkRYx22zBb0D2-39" value="&lt;div&gt;TxReady = 1&lt;/div&gt;&lt;div&gt;SendEnd &amp;lt;= 1&lt;br&gt;&lt;/div&gt;" style="text;html=1;strokeColor=none;fillColor=none;align=center;verticalAlign=middle;whiteSpace=wrap;rounded=0;" vertex="1" parent="1">
          <mxGeometry x="80" y="160" width="80" height="30" as="geometry" />
        </mxCell>
      </root>
    </mxGraphModel>
  </diagram>
</mxfile>
